# xmcd
#
# Track frame offsets:
#	150
#	15955
#	32602
#	44460
#	57807
#	71532
#	83717
#	98372
#	111090
#	125450
#	140917
#	154895
#	171960
#	188297
#	201960
#	216630
#	234742
#	251915
#	266187
#	280292
#	291902
#
# Disc length: 4021 seconds
# Revision: 0
# Processed by: cddbd v1.5.2PL0 Copyright (c) Steve Scherf et al.
# Submitted via: dBpowerAMP V12.0
#
DISCID=390fb315
DTITLE=Various Artist - TM Century GoldDisc 1052R
DYEAR=1986
DGENRE=Country
TTITLE0=Dolly Parton - Tie Our Love (In A Double Knot)
TTITLE1=The Oak Ridge Boys - Fancy Free
TTITLE2=Hank Williams Jr. - Gonna Go Huntin' Tonight
TTITLE3=Lacy J. Dalton - Crazy Blue Eyes
TTITLE4=George Jones - I'm Not Ready Yet
TTITLE5=The Kendalls - Sweet Desire
TTITLE6=John Conlee - Way Back
TTITLE7=J.C. Crowley - Paint The Town And Hang The Moon Tonight
TTITLE8=Tammy Wynette - Your Love
TTITLE9=Merle Haggard - Kern River
TTITLE10=Sweethearts Of The Rodeo - Gotta Get Away
TTITLE11=Emmylou Harris - Beneath Still Waters
TTITLE12=Willie Nelson with Julio Iglesias - Spanish Eyes
TTITLE13=Waylon Jennings - Never Could Toe The Mark
TTITLE14=Earl Thomas Conley - Silent Treament
TTITLE15=Crystal Gayle - 'Til I Gain Control Again
TTITLE16=Michael Martin Murphey - What She Wants
TTITLE17=The Whites - You Put The Blue In Me
TTITLE18=Moe Bandy - I Cheated Me Right Out Of You
TTITLE19=Linda Ronstadt - That'll Be The Day
TTITLE20=Gene Watson - Speak Softly (You're Talking To My Heart)
EXTD=
EXTT0=
EXTT1=
EXTT2=
EXTT3=
EXTT4=
EXTT5=
EXTT6=
EXTT7=
EXTT8=
EXTT9=
EXTT10=
EXTT11=
EXTT12=
EXTT13=
EXTT14=
EXTT15=
EXTT16=
EXTT17=
EXTT18=
EXTT19=
EXTT20=
PLAYORDER=
